<svg xmlns="http://www.w3.org/2000/svg" xml:space="preserve"
     style="fill-rule:evenodd;clip-rule:evenodd;stroke-linejoin:round;stroke-miterlimit:2" viewBox="0 0 72 72"><path d="M38.33 23.7A2.33 2.33 0 0 0 36 21.36a2.33 2.33 0 0 0-2.32 2.32v13.47H19.75a2.33 2.33 0 0 0-2.33 2.33 2.33 2.33 0 0 0 2.32 2.32H36a2.33 2.33 0 0 0 2.33-2.32v-15.8Z" style="fill:#efefef;fill-rule:nonzero"/>
    <path d="M29.04 2.32A2.33 2.33 0 0 1 31.36 0h9.29a2.33 2.33 0 0 1 2.32 2.32 2.33 2.33 0 0 1-2.32 2.32V7.3a32.4 32.4 0 0 1 16.65 7.62l.05-.06L59 13.21l-1.65-1.64a2.33 2.33 0 0 1 3.29-3.3l6.57 6.58a2.32 2.32 0 1 1-3.29 3.29l-1.64-1.65-1.64 1.65-.06.05a32.53 32.53 0 0 1 7.94 21.3A32.67 32.67 0 0 1 36 72 32.67 32.67 0 0 1 3.48 39.48 32.63 32.63 0 0 1 31.36 7.3V4.64a2.33 2.33 0 0 1-2.32-2.32Zm6.96 9.3A28 28 0 0 0 8.13 39.48a28 28 0 0 0 27.88 27.87 28 28 0 0 0 27.87-27.87A28 28 0 0 0 36 11.6Z"
          style="fill:#efefef;fill-rule:nonzero"/></svg>
