<svg width="144" height="144" viewBox="0 0 144 144" fill="none" xmlns="http://www.w3.org/2000/svg">
<path fill-rule="evenodd" clip-rule="evenodd" d="M63.75 44.25C63.75 43.0074 64.7574 42 66 42H78C79.2426 42 80.25 43.0074 80.25 44.25C80.25 45.4926 79.2426 46.5 78 46.5L66 46.5C64.7574 46.5 63.75 45.4926 63.75 44.25ZM91.5 75C91.5 64.2304 82.7696 55.5 72 55.5C61.2305 55.5 52.5 64.2304 52.5 75C52.5 85.7695 61.2304 94.5 72 94.5C82.7696 94.5 91.5 85.7696 91.5 75ZM72 99C85.2548 99 96 88.2548 96 75C96 61.7452 85.2548 51 72 51C58.7452 51 48 61.7452 48 75C48 88.2548 58.7452 99 72 99ZM47.3084 54.5389C46.4297 55.4176 46.4297 56.8422 47.3084 57.7209C48.1871 58.5996 49.6117 58.5996 50.4904 57.7209L54.733 53.4782C55.6117 52.5996 55.6117 51.1749 54.733 50.2963C53.8544 49.4176 52.4297 49.4176 51.5511 50.2963L47.3084 54.5389ZM96.7209 57.7209C97.5995 56.8422 97.5995 55.4176 96.7209 54.5389L92.4782 50.2963C91.5995 49.4176 90.1749 49.4176 89.2963 50.2963C88.4176 51.1749 88.4176 52.5996 89.2963 53.4782L93.5389 57.7209C94.4176 58.5996 95.8422 58.5996 96.7209 57.7209ZM79.409 64.409L70.409 73.409C69.5303 74.2877 69.5303 75.7123 70.409 76.591C71.2877 77.4697 72.7123 77.4697 73.591 76.591L82.591 67.591C83.4697 66.7123 83.4697 65.2877 82.591 64.409C81.7123 63.5303 80.2877 63.5303 79.409 64.409Z" fill="white"/>
</svg>
