<svg xmlns="http://www.w3.org/2000/svg" xml:space="preserve"
     style="fill-rule:evenodd;clip-rule:evenodd;stroke-linejoin:round;stroke-miterlimit:2" viewBox="0 0 72 72">
    <path d="M46.1 4.2a34.6 34.6 0 0 1 24 33.1A34.4 34.4 0 0 1 36 72C17.2 72 2 56.5 2 37.3c0-15.5 10-28.7 23.8-33l.1-1.6c.3-1.5 1.3-2.7 2.8-2.7h14.6c1.5 0 2.5 1.2 2.7 2.7l.1 1.5Zm17.6 33.1A28 28 0 0 0 36 9.2 28 28 0 0 0 8.3 37.3 28 28 0 0 0 36 65.5a28 28 0 0 0 27.7-28.2Z"
          style="fill:#547cff"/>
    <text x="37" y="42"
          style="font-family:Verdana;font-size:14px;font-weight:700;fill:#fff;text-anchor:middle;dominant-baseline:middle"> </text>
</svg>
