<svg xmlns="http://www.w3.org/2000/svg" style="fill-rule:evenodd;clip-rule:evenodd;stroke-linejoin:round;stroke-miterlimit:2" viewBox="0 0 79.3 79.3"><path d="M79.301 16.896C79.301 7.571 71.73 0 62.405 0H16.896C7.571 0 0 7.571 0 16.896v45.509c0 9.325 7.571 16.896 16.896 16.896h45.509c9.325 0 16.896-7.571 16.896-16.896V16.896Z" style="fill:url(#a)"/><path d="M33.568 10.237c0-1.113.916-2.029 2.029-2.029h8.114c1.113 0 2.029.916 2.029 2.029a2.039 2.039 0 0 1-2.029 2.029v2.312a28.3 28.3 0 0 1 14.541 6.654l.049-.053 1.436-1.436-1.436-1.432a2.033 2.033 0 0 1-.596-1.436 2.04 2.04 0 0 1 2.03-2.03 2.03 2.03 0 0 1 1.434.593l5.737 5.741c.396.382.619.909.619 1.459a2.038 2.038 0 0 1-2.028 2.029c-.55 0-1.077-.224-1.459-.619l-1.433-1.437-1.436 1.437-.053.048a28.406 28.406 0 0 1 6.935 18.596c0 15.58-12.821 28.4-28.401 28.4s-28.4-12.82-28.4-28.4c0-14.056 10.435-26.104 24.347-28.11v-2.316a2.039 2.039 0 0 1-2.029-2.029Zm6.086 8.114c-13.354.001-24.341 10.99-24.341 24.344 0 13.354 10.989 24.343 24.343 24.343h.002c13.353-.001 24.341-10.99 24.341-24.343 0-13.355-10.989-24.344-24.343-24.344h-.002Z" style="fill:#fff;fill-rule:nonzero"/><path d="M28.719 48.448h-7.69v-2.012h2.429v-6.088h-2.429v-1.88c.371 0 .727-.022 1.068-.066.34-.044.624-.12.851-.228.268-.129.469-.297.603-.503.134-.206.212-.464.232-.774h2.561v9.539h2.375v2.012ZM34.869 42.8h-2.893v-3.04h2.893v3.04Zm0 5.648h-2.893v-3.041h2.893v3.041ZM47.008 42.684c0 .97-.088 1.837-.264 2.603-.175.766-.448 1.394-.82 1.884-.381.5-.871.878-1.469 1.134-.599.255-1.336.382-2.213.382-.861 0-1.596-.128-2.205-.386a3.523 3.523 0 0 1-1.478-1.145c-.381-.506-.657-1.134-.827-1.884-.17-.751-.256-1.611-.256-2.58 0-1.001.088-1.87.263-2.607.176-.738.454-1.362.836-1.872a3.512 3.512 0 0 1 1.485-1.138c.609-.252 1.336-.379 2.182-.379.882 0 1.622.13 2.22.391a3.55 3.55 0 0 1 1.47 1.164c.377.506.65 1.128.82 1.869.17.74.256 1.594.256 2.564Zm-2.994 0c0-1.392-.137-2.384-.41-2.975-.274-.59-.728-.885-1.362-.885-.634 0-1.088.295-1.362.885-.273.591-.41 1.588-.41 2.991 0 1.366.14 2.351.418 2.955.279.603.73.905 1.354.905.624 0 1.075-.302 1.354-.905.278-.604.418-1.594.418-2.971ZM58.101 44.549c0 .598-.112 1.154-.336 1.667a3.636 3.636 0 0 1-.979 1.319 4.683 4.683 0 0 1-1.636.87c-.616.188-1.319.282-2.108.282-.923-.005-1.703-.078-2.34-.22-.637-.142-1.157-.3-1.559-.476v-2.545h.325c.469.278.974.511 1.516.696.542.186 1.08.279 1.617.279.325 0 .677-.038 1.056-.112.379-.075.679-.211.901-.407.176-.159.308-.322.399-.487.09-.165.135-.42.135-.766 0-.268-.061-.499-.182-.692a1.434 1.434 0 0 0-.468-.468 2.571 2.571 0 0 0-1.006-.337 7.222 7.222 0 0 0-2.402.039c-.425.08-.798.158-1.118.236h-.34v-6.499h8.193v2.205h-5.4v1.88a21.076 21.076 0 0 1 1.253-.039c.634 0 1.2.061 1.698.182s.927.29 1.288.507c.47.284.836.659 1.099 1.126.263.466.394 1.053.394 1.76Z" style="fill:#fff;fill-rule:nonzero"/><circle cx="52.102" cy="24.506" r="1.75" style="fill:#ff6e52"/><defs><radialGradient id="a" cx="0" cy="0" r="1" gradientTransform="matrix(0 64 -64 0 39.65 15.019)" gradientUnits="userSpaceOnUse"><stop offset="0" style="stop-color:#5064f6;stop-opacity:1"/><stop offset="1" style="stop-color:#3a2df0;stop-opacity:1"/></radialGradient></defs></svg>
