<svg xmlns="http://www.w3.org/2000/svg" xml:space="preserve"
     style="fill-rule:evenodd;clip-rule:evenodd;stroke-linejoin:round;stroke-miterlimit:2" viewBox="0 0 144 144"><path d="M73.953 61.743a1.944 1.944 0 0 0-1.935-1.936 1.945 1.945 0 0 0-1.936 1.936v11.226H58.469a1.945 1.945 0 0 0-1.936 1.936c0 1.061.874 1.935 1.936 1.935h13.549a1.944 1.944 0 0 0 1.935-1.935V61.743Z" style="fill:#fff;fill-rule:nonzero"/>
    <path d="M66.211 43.936c0-1.062.874-1.936 1.936-1.936h7.742c1.062 0 1.936.874 1.936 1.936a1.945 1.945 0 0 1-1.936 1.935v2.207a26.993 26.993 0 0 1 13.874 6.348l.047-.05 1.37-1.37-1.37-1.367a1.935 1.935 0 0 1-.569-1.37c0-1.063.875-1.937 1.937-1.937a1.94 1.94 0 0 1 1.369.566l5.473 5.478c.378.365.591.867.591 1.392a1.945 1.945 0 0 1-1.935 1.936 1.94 1.94 0 0 1-1.393-.591l-1.366-1.37-1.37 1.37a2.117 2.117 0 0 1-.051.046 27.107 27.107 0 0 1 6.617 17.743C99.113 89.768 86.88 102 72.015 102c-14.866 0-27.098-12.232-27.098-27.098 0-13.411 9.956-24.906 23.23-26.82v-2.211a1.945 1.945 0 0 1-1.936-1.935Zm5.807 7.742c-12.741.001-23.225 10.486-23.225 23.227 0 12.742 10.485 23.226 23.227 23.226h.002c12.741-.001 23.225-10.485 23.225-23.226 0-12.742-10.485-23.227-23.227-23.227h-.002Z"
          style="fill:#fff;fill-rule:nonzero"/></svg>
