<svg xmlns="http://www.w3.org/2000/svg" style="stroke-linejoin:round;stroke-miterlimit:2" viewBox="0 0 72 72">
    <path d="M29.072 2.498c0-1.267 1.043-2.311 2.311-2.311h9.242c1.268 0 2.311 1.044 2.311 2.311 0 1.268-1.043 2.311-2.311 2.311v2.634c6.285.905 11.987 3.604 16.562 7.578.019-.02.037-.04.056-.06l1.636-1.636-1.636-1.631c-.434-.433-.678-1.022-.678-1.636 0-1.268 1.043-2.312 2.311-2.312.613 0 1.201.244 1.634.676l6.534 6.539c.451.436.706 1.036.706 1.662 0 1.268-1.043 2.311-2.311 2.311-.626 0-1.227-.255-1.662-.705l-1.631-1.636-1.636 1.636c-.02.018-.04.037-.06.055 5.093 5.879 7.898 13.402 7.898 21.18 0 17.746-14.602 32.349-32.348 32.349S3.652 57.21 3.652 39.464c0-16.009 11.885-29.731 27.731-32.017V4.809c-1.268 0-2.311-1.043-2.311-2.311Zm6.932 9.242c-15.21.002-27.725 12.518-27.725 27.727 0 15.211 12.517 27.727 27.727 27.727h.003c15.209-.001 27.724-12.517 27.724-27.727S51.217 11.74 36.006 11.74h-.002Z" style="fill:#547cff"/>
    <circle cx="35.75" cy="15" r="3" style="fill:#ee4b2b"/>
    <text x="36" y="44" style="font-family:Verdana;font-size:14px;font-weight:700;fill:#fff;text-anchor:middle;dominant-baseline:middle"> </text>
</svg>
