<svg xmlns="http://www.w3.org/2000/svg" style="fill-rule:evenodd;clip-rule:evenodd;stroke-linejoin:round;stroke-miterlimit:2;fill:#fff" viewBox="0 0 72 72">
    <path d="M36.977,30.872C36.974,30.341 36.539,29.906 36.009,29.904C35.479,29.906 35.043,30.341 35.041,30.871L35.041,36.485L29.235,36.485C28.704,36.487 28.269,36.922 28.267,37.453C28.267,37.983 28.704,38.42 29.235,38.42L36.009,38.42C36.539,38.418 36.974,37.982 36.977,37.453L36.977,30.872Z"/>
    <path d="M33.106,21.968C33.106,21.437 33.542,21 34.073,21L37.945,21C38.475,21 38.912,21.437 38.912,21.968C38.91,22.498 38.474,22.933 37.944,22.936L37.944,24.039C40.514,24.408 42.923,25.51 44.881,27.213L44.905,27.188L45.59,26.503L44.905,25.82C44.723,25.638 44.621,25.391 44.62,25.135C44.62,24.603 45.058,24.166 45.589,24.166C45.846,24.166 46.092,24.268 46.273,24.449L49.01,27.188C49.199,27.371 49.305,27.622 49.305,27.884C49.303,28.414 48.868,28.849 48.338,28.852C48.076,28.852 47.824,28.745 47.641,28.557L46.958,27.872L46.273,28.557C46.265,28.564 46.257,28.572 46.248,28.58C48.381,31.042 49.556,34.193 49.556,37.451C49.557,44.884 43.44,51 36.008,51C28.575,51 22.459,44.884 22.459,37.451C22.459,30.746 27.437,24.998 34.074,24.041L34.074,22.936C33.544,22.933 33.108,22.498 33.106,21.968ZM36.009,25.839C29.639,25.839 24.397,31.082 24.397,37.453C24.397,43.824 29.639,49.066 36.01,49.066L36.011,49.066C42.381,49.065 47.623,43.823 47.623,37.453C47.623,31.081 42.381,25.839 36.01,25.839L36.009,25.839Z"/>
</svg>
