<svg fill="none" version="1.1" viewBox="0 0 20 20" xmlns="http://www.w3.org/2000/svg">
 <path d="m7.245 0.75c0-0.41421 0.33579-0.75 0.75-0.75h4c0.4142 0 0.75 0.33579 0.75 0.75 0 0.41421-0.3358 0.75-0.75 0.75h-4c-0.41421 0-0.75-0.33579-0.75-0.75zm9.25 11.25c0-3.5898-2.9101-6.5-6.5-6.5-3.5898 0-6.5 2.9102-6.5 6.5 0 3.5898 2.9102 6.5 6.5 6.5 3.5899 0 6.5-2.9101 6.5-6.5zm-6.5 8c4.4183 0 8-3.5817 8-8 0-4.4183-3.5817-8-8-8-4.4183 0-8 3.5817-8 8 0 4.4183 3.5817 8 8 8zm-8.2303-15.82c-0.29289 0.29289-0.29289 0.76777 0 1.0607 0.29289 0.29289 0.76777 0.29289 1.0607 0l1.4142-1.4142c0.2929-0.2929 0.2929-0.76777 0-1.0607-0.29289-0.2929-0.76776-0.2929-1.0607 0zm16.471 1.0607c0.2929-0.29289 0.2929-0.76777 0-1.0607l-1.4142-1.4142c-0.2929-0.2929-0.7677-0.2929-1.0606 0-0.2929 0.29289-0.2929 0.76776 0 1.0607l1.4142 1.4142c0.2929 0.29289 0.7677 0.29289 1.0606 0zm-5.7705 3.2294-3 3c-0.29289 0.2929-0.29289 0.7677 0 1.0606s0.76777 0.2929 1.0607 0l3-3c0.2929-0.29289 0.2929-0.76777 0-1.0607s-0.7677-0.29289-1.0606 0z" clip-rule="evenodd" fill="#fff" fill-rule="evenodd"/>
</svg>
