<svg xmlns="http://www.w3.org/2000/svg" xml:space="preserve" style="fill-rule:evenodd;clip-rule:evenodd;stroke-linejoin:round;stroke-miterlimit:2" viewBox="0 0 753.21 218.99"><path d="M165.503 41.797c0-7.148-1.687-12.952-3.766-12.952H22.55c-2.078 0-3.765 5.804-3.765 12.952v120.815c0 7.148 1.687 12.952 3.765 12.952h139.187c2.079 0 3.766-5.804 3.766-12.952V41.797Z" style="fill:#2d2d2d" transform="matrix(5.1337 0 0 1.4926 -96.435 -43.0542)"/><path d="M184.35 66.985v85.02c0 17.383-14.112 31.495-31.495 31.495h-85.02c-17.383 0-31.496-14.112-31.496-31.495v-85.02c0-17.383 14.113-31.496 31.496-31.496h85.02c17.383 0 31.495 14.113 31.495 31.496Zm177.508 0v85.02c0 17.383-14.112 31.495-31.495 31.495h-85.02c-17.383 0-31.496-14.112-31.496-31.495v-85.02c0-17.383 14.113-31.496 31.496-31.496h85.02c17.383 0 31.495 14.113 31.495 31.496Zm177.508 0v85.02c0 17.383-14.112 31.495-31.495 31.495h-85.02c-17.383 0-31.496-14.112-31.496-31.495v-85.02c0-17.383 14.113-31.496 31.496-31.496h85.02c17.383 0 31.495 14.113 31.495 31.496Zm177.508 0v85.02c0 17.383-14.112 31.495-31.495 31.495h-85.02c-17.383 0-31.496-14.112-31.496-31.495v-85.02c0-17.383 14.113-31.496 31.496-31.496h85.02c17.383 0 31.495 14.113 31.495 31.496Z" style="fill:#474747"/><path d="M178.644 67.185v84.619c0 14.344-11.646 25.99-25.99 25.99H68.035c-14.343 0-25.989-11.646-25.989-25.99V67.185c0-14.343 11.646-25.989 25.989-25.989h84.619c14.344 0 25.99 11.646 25.99 25.989Zm177.508 0v84.619c0 14.344-11.646 25.99-25.99 25.99h-84.619c-14.344 0-25.989-11.646-25.989-25.99V67.185c0-14.343 11.645-25.989 25.989-25.989h84.619c14.344 0 25.99 11.646 25.99 25.989Zm177.507 0v84.619c0 14.344-11.645 25.99-25.989 25.99h-84.619c-14.344 0-25.989-11.646-25.989-25.99V67.185c0-14.343 11.645-25.989 25.989-25.989h84.619c14.344 0 25.989 11.646 25.989 25.989Zm177.508 0v84.619c0 14.344-11.645 25.99-25.989 25.99h-84.619c-14.344 0-25.989-11.646-25.989-25.99V67.185c0-14.343 11.645-25.989 25.989-25.989h84.619c14.344 0 25.989 11.646 25.989 25.989Z" style="fill:#222"/><path d="M104.81 82.813c0-1.01.83-1.841 1.84-1.841h7.361c1.009 0 1.84.831 1.84 1.841 0 1.009-.831 1.84-1.84 1.84v2.098c5.005.721 9.547 2.871 13.191 6.036.014-.016.029-.032.044-.048l1.303-1.303-1.303-1.299a1.8407 1.8407 0 0 1-.541-1.303c0-1.01.832-1.841 1.842-1.841.487 0 .956.193 1.301.538l5.204 5.208c.359.347.562.825.562 1.324 0 1.009-.831 1.84-1.84 1.84-.499 0-.978-.203-1.324-.562l-1.299-1.303-1.303 1.303c-.016.015-.032.03-.048.044a25.7695 25.7695 0 0 1 6.29 16.869c0 14.133-11.63 25.763-25.763 25.763-14.133 0-25.763-11.63-25.763-25.763 0-12.751 9.466-23.68 22.086-25.499v-2.102c-1.01 0-1.84-.831-1.84-1.84Zm5.52 7.361c-12.113.001-22.081 9.969-22.081 22.082 0 12.115 9.969 22.083 22.083 22.083h.002c12.114-.001 22.081-9.969 22.081-22.083 0-12.114-9.969-22.082-22.083-22.082h-.002Zm1.84 9.569v12.513c0 1.01-.83 1.841-1.84 1.841H97.449c-1.01 0-1.841-.831-1.841-1.841 0-1.009.831-1.84 1.841-1.84h11.041V99.743c0-1.01.831-1.84 1.84-1.84 1.01 0 1.84.83 1.84 1.84Zm161.78 15.046c0 1.594-.144 3.02-.432 4.279-.289 1.259-.738 2.292-1.348 3.097-.628.823-1.433 1.444-2.417 1.863-.983.42-2.196.63-3.637.63-1.416 0-2.624-.212-3.625-.636-1-.424-1.81-1.051-2.429-1.882-.627-.831-1.081-1.864-1.361-3.097-.28-1.234-.419-2.648-.419-4.242 0-1.644.144-3.073.432-4.286.288-1.212.746-2.238 1.374-3.077.627-.831 1.441-1.454 2.441-1.87 1.001-.415 2.196-.623 3.587-.623 1.45 0 2.666.214 3.65.642.983.428 1.789 1.066 2.416 1.914.619.831 1.069 1.855 1.348 3.072.28 1.216.42 2.622.42 4.216Zm-4.922 0c0-2.29-.224-3.92-.674-4.89-.449-.971-1.195-1.457-2.238-1.457s-1.789.486-2.239 1.457c-.449.97-.674 2.609-.674 4.915 0 2.247.229 3.866.687 4.858.458.992 1.2 1.488 2.226 1.488s1.768-.496 2.226-1.488c.457-.992.686-2.62.686-4.883Zm13.965.19h-4.757v-4.998h4.757v4.998Zm0 9.285h-4.757v-4.999h4.757v4.999Zm19.674-6.41c0 .983-.184 1.897-.553 2.74-.369.844-.905 1.567-1.609 2.169-.78.644-1.676 1.121-2.689 1.431-1.014.309-2.169.464-3.466.464-1.518-.009-2.8-.129-3.847-.363-1.047-.233-1.902-.494-2.563-.782v-4.184h.534c.772.458 1.603.839 2.493 1.145.89.305 1.776.457 2.658.457.534 0 1.113-.061 1.736-.184s1.117-.345 1.482-.668c.288-.262.506-.53.655-.801.148-.271.222-.691.222-1.259 0-.441-.099-.82-.299-1.138-.199-.318-.455-.575-.769-.77-.458-.279-1.009-.464-1.653-.553-.645-.089-1.23-.133-1.756-.133-.763 0-1.494.065-2.193.197-.7.131-1.313.26-1.838.388h-.56v-10.684h13.469v3.625h-8.878v3.091c.263-.017.596-.032.999-.045.403-.013.757-.019 1.062-.019 1.043 0 1.973.1 2.791.299.819.199 1.524.477 2.118.833.771.466 1.373 1.083 1.806 1.85.432.768.648 1.732.648 2.894Zm18.518 0c0 .983-.184 1.897-.553 2.74-.369.844-.905 1.567-1.609 2.169-.78.644-1.677 1.121-2.69 1.431-1.013.309-2.168.464-3.466.464-1.517-.009-2.8-.129-3.847-.363-1.047-.233-1.901-.494-2.563-.782v-4.184h.535c.771.458 1.602.839 2.492 1.145.891.305 1.777.457 2.658.457.535 0 1.113-.061 1.736-.184.624-.123 1.117-.345 1.482-.668.288-.262.507-.53.655-.801.148-.271.223-.691.223-1.259 0-.441-.1-.82-.299-1.138-.2-.318-.456-.575-.77-.77-.458-.279-1.009-.464-1.653-.553-.644-.089-1.229-.133-1.755-.133-.763 0-1.495.065-2.194.197-.699.131-1.312.26-1.838.388h-.559v-10.684h13.468v3.625h-8.877v3.091c.263-.017.595-.032.998-.045.403-.013.757-.019 1.062-.019 1.043 0 1.974.1 2.792.299.818.199 1.524.477 2.117.833.772.466 1.374 1.083 1.806 1.85.433.768.649 1.732.649 2.894Zm129.428 6.41h-12.642v-3.307h3.994v-10.009h-3.994v-3.091c.611 0 1.196-.036 1.755-.108.56-.072 1.026-.197 1.399-.375.441-.212.772-.487.992-.827.221-.339.348-.763.382-1.271h4.209v15.681h3.905v3.307Zm10.111-9.285h-4.757v-4.998h4.757v4.998Zm0 9.285h-4.757v-4.999h4.757v4.999Zm19.954-9.475c0 1.594-.144 3.02-.432 4.279-.288 1.259-.738 2.292-1.348 3.097-.628.823-1.433 1.444-2.417 1.863-.983.42-2.196.63-3.637.63-1.416 0-2.624-.212-3.625-.636-1-.424-1.81-1.051-2.429-1.882-.627-.831-1.081-1.864-1.361-3.097-.28-1.234-.419-2.648-.419-4.242 0-1.644.144-3.073.432-4.286.288-1.212.746-2.238 1.374-3.077.627-.831 1.441-1.454 2.441-1.87 1.001-.415 2.196-.623 3.587-.623 1.45 0 2.666.214 3.65.642.984.428 1.789 1.066 2.416 1.914.619.831 1.069 1.855 1.349 3.072.279 1.216.419 2.622.419 4.216Zm-4.922 0c0-2.29-.224-3.92-.674-4.89-.449-.971-1.195-1.457-2.238-1.457s-1.789.486-2.238 1.457c-.45.97-.675 2.609-.675 4.915 0 2.247.229 3.866.687 4.858.458.992 1.2 1.488 2.226 1.488s1.768-.496 2.226-1.488c.457-.992.686-2.62.686-4.883Zm23.44 0c0 1.594-.144 3.02-.433 4.279-.288 1.259-.737 2.292-1.348 3.097-.627.823-1.433 1.444-2.416 1.863-.984.42-2.196.63-3.638.63-1.416 0-2.624-.212-3.624-.636-1.001-.424-1.81-1.051-2.429-1.882-.628-.831-1.081-1.864-1.361-3.097-.28-1.234-.42-2.648-.42-4.242 0-1.644.144-3.073.432-4.286.289-1.212.747-2.238 1.374-3.077.627-.831 1.441-1.454 2.442-1.87 1-.415 2.196-.623 3.586-.623 1.45 0 2.667.214 3.65.642.984.428 1.789 1.066 2.417 1.914.619.831 1.068 1.855 1.348 3.072.28 1.216.42 2.622.42 4.216Zm-4.922 0c0-2.29-.225-3.92-.674-4.89-.45-.971-1.196-1.457-2.239-1.457s-1.789.486-2.238 1.457c-.449.97-.674 2.609-.674 4.915 0 2.247.229 3.866.687 4.858.458.992 1.199 1.488 2.225 1.488s1.768-.496 2.226-1.488c.458-.992.687-2.62.687-4.883Zm134.497 9.475h-12.642v-3.307h3.993v-10.009h-3.993v-3.091c.61 0 1.195-.036 1.755-.108.56-.072 1.026-.197 1.399-.375.441-.212.772-.487.992-.827.22-.339.348-.763.382-1.271h4.209v15.681h3.905v3.307Zm10.11-9.285h-4.756v-4.998h4.756v4.998Zm0 9.285h-4.756v-4.999h4.756v4.999Zm19.955-9.475c0 1.594-.144 3.02-.432 4.279-.289 1.259-.738 2.292-1.348 3.097-.628.823-1.433 1.444-2.417 1.863-.983.42-2.196.63-3.637.63-1.416 0-2.624-.212-3.625-.636-1-.424-1.81-1.051-2.429-1.882-.627-.831-1.081-1.864-1.361-3.097-.28-1.234-.42-2.648-.42-4.242 0-1.644.145-3.073.433-4.286.288-1.212.746-2.238 1.373-3.077.628-.831 1.442-1.454 2.442-1.87 1.001-.415 2.196-.623 3.587-.623 1.45 0 2.666.214 3.65.642.983.428 1.789 1.066 2.416 1.914.619.831 1.069 1.855 1.348 3.072.28 1.216.42 2.622.42 4.216Zm-4.922 0c0-2.29-.225-3.92-.674-4.89-.449-.971-1.195-1.457-2.238-1.457s-1.789.486-2.239 1.457c-.449.97-.674 2.609-.674 4.915 0 2.247.229 3.866.687 4.858.458.992 1.2 1.488 2.226 1.488s1.768-.496 2.225-1.488c.458-.992.687-2.62.687-4.883Zm23.16 3.065c0 .983-.185 1.897-.554 2.74-.368.844-.905 1.567-1.608 2.169-.78.644-1.677 1.121-2.69 1.431-1.013.309-2.169.464-3.466.464-1.518-.009-2.8-.129-3.847-.363-1.047-.233-1.901-.494-2.563-.782v-4.184h.534c.772.458 1.603.839 2.493 1.145.89.305 1.776.457 2.658.457.534 0 1.113-.061 1.736-.184s1.117-.345 1.482-.668c.288-.262.506-.53.655-.801.148-.271.222-.691.222-1.259 0-.441-.099-.82-.298-1.138-.2-.318-.456-.575-.77-.77-.458-.279-1.009-.464-1.653-.553-.645-.089-1.23-.133-1.755-.133-.763 0-1.495.065-2.194.197-.7.131-1.312.26-1.838.388h-.56v-10.684h13.469v3.625h-8.877v3.091c.262-.017.595-.032.998-.045.403-.013.757-.019 1.062-.019 1.043 0 1.973.1 2.792.299.818.199 1.524.477 2.117.833.772.466 1.374 1.083 1.806 1.85.432.768.649 1.732.649 2.894Z" style="fill:#fff"/><path d="M4.875.75c0-.206.169-.375.375-.375h1.5c.206 0 .375.169.375.375s-.169.375-.375.375v.427c1.02.148 1.945.585 2.688 1.23l.009-.009.265-.266-.265-.264a.3787.3787 0 0 1-.11-.266c0-.206.169-.375.375-.375.1 0 .195.039.265.11l1.061 1.061c.073.07.114.168.114.269 0 .206-.169.375-.375.375a.3736.3736 0 0 1-.269-.114l-.265-.266-.266.266-.009.009a5.2525 5.2525 0 0 1 1.281 3.437c0 2.881-2.37 5.25-5.25 5.25S.749 9.63.749 6.749c0-2.598 1.929-4.825 4.501-5.196v-.428A.3764.3764 0 0 1 4.875.75ZM6 2.25c-2.468 0-4.5 2.032-4.5 4.5 0 2.469 2.032 4.5 4.5 4.5h.001c2.468 0 4.499-2.032 4.499-4.5 0-2.469-2.031-4.5-4.5-4.5Z" style="fill:#ff5964;fill-rule:nonzero" transform="translate(218.721 37.7694) scale(11.5925)"/><path d="M4.875.75c0-.206.169-.375.375-.375h1.5c.206 0 .375.169.375.375s-.169.375-.375.375v.427c1.02.148 1.945.585 2.688 1.23l.009-.009.265-.266-.265-.264a.3787.3787 0 0 1-.11-.266c0-.206.169-.375.375-.375.1 0 .195.039.265.11l1.061 1.061c.073.07.114.168.114.269 0 .206-.169.375-.375.375a.3736.3736 0 0 1-.269-.114l-.265-.266-.266.266-.009.009a5.2525 5.2525 0 0 1 1.281 3.437c0 2.881-2.37 5.25-5.25 5.25S.749 9.63.749 6.749c0-2.598 1.929-4.825 4.501-5.196v-.428A.3764.3764 0 0 1 4.875.75ZM6 2.25c-2.468 0-4.5 2.032-4.5 4.5 0 2.469 2.032 4.5 4.5 4.5h.001c2.468 0 4.499-2.032 4.499-4.5 0-2.469-2.031-4.5-4.5-4.5Z" style="fill:#00ff69;fill-rule:nonzero" transform="translate(395.964 37.7694) scale(11.5925)"/><path d="M4.875.75c0-.206.169-.375.375-.375h1.5c.206 0 .375.169.375.375s-.169.375-.375.375v.427c1.02.148 1.945.585 2.688 1.23l.009-.009.265-.266-.265-.264a.3787.3787 0 0 1-.11-.266c0-.206.169-.375.375-.375.1 0 .195.039.265.11l1.061 1.061c.073.07.114.168.114.269 0 .206-.169.375-.375.375a.3736.3736 0 0 1-.269-.114l-.265-.266-.266.266-.009.009a5.2525 5.2525 0 0 1 1.281 3.437c0 2.881-2.37 5.25-5.25 5.25S.749 9.63.749 6.749c0-2.598 1.929-4.825 4.501-5.196v-.428A.3764.3764 0 0 1 4.875.75ZM6 2.25c-2.468 0-4.5 2.032-4.5 4.5 0 2.469 2.032 4.5 4.5 4.5h.001c2.468 0 4.499-2.032 4.499-4.5 0-2.469-2.031-4.5-4.5-4.5Z" style="fill:#547cff;fill-rule:nonzero" transform="translate(574.219 37.7694) scale(11.5925)"/></svg>